<svg fill="currentColor" xmlns="http://www.w3.org/2000/svg" width="24" height="24" viewBox="0 0 24 24"><link xmlns="" type="text/css" rel="stylesheet" id="dark-mode-custom-link"/><link xmlns="" type="text/css" rel="stylesheet" id="dark-mode-general-link"/><style xmlns="" lang="en" type="text/css" id="dark-mode-custom-style"/><style xmlns="" lang="en" type="text/css" id="dark-mode-native-style"/><style xmlns="" lang="en" type="text/css" id="dark-mode-native-sheet"/>
<path d="M16.596 1.04001L22.943 7.38601C23.0084 7.4513 23.0544 7.53344 23.076 7.62331C23.0975 7.71318 23.0937 7.80726 23.065 7.89511C23.0363 7.98296 22.9838 8.06113 22.9134 8.12096C22.843 8.18078 22.7573 8.21991 22.666 8.23401L21.192 8.46401L15.536 2.80801L15.748 1.32301C15.7612 1.23118 15.7996 1.14483 15.8591 1.07361C15.9185 1.0024 15.9966 0.949125 16.0846 0.919757C16.1726 0.89039 16.2671 0.886083 16.3574 0.90732C16.4477 0.928557 16.5303 0.974499 16.596 1.04001ZM4.59499 20.15C8.31699 16.819 12.59 15.822 17.238 14.63L17.684 10.612L13.387 6.31501L9.369 6.76101C8.177 11.409 7.17999 15.681 3.84899 19.404L2.45399 18.01C5.28199 14.71 6.34399 11.057 7.75699 4.92901L14.121 4.22201L19.778 9.87901L19.071 16.243C12.943 17.657 9.28899 18.718 5.98999 21.546L4.59499 20.15ZM9.87899 14.12C9.68797 13.9355 9.53561 13.7148 9.43079 13.4708C9.32597 13.2268 9.2708 12.9644 9.26849 12.6988C9.26619 12.4333 9.31679 12.1699 9.41735 11.9241C9.51791 11.6783 9.66642 11.455 9.8542 11.2672C10.042 11.0794 10.2653 10.9309 10.5111 10.8304C10.7569 10.7298 11.0202 10.6792 11.2858 10.6815C11.5514 10.6838 11.8138 10.739 12.0578 10.8438C12.3018 10.9486 12.5225 11.101 12.707 11.292C13.0663 11.6701 13.2637 12.1735 13.2571 12.6951C13.2505 13.2166 13.0405 13.7149 12.6717 14.0838C12.303 14.4526 11.8048 14.6629 11.2832 14.6696C10.7617 14.6764 10.2582 14.4792 9.87999 14.12H9.87899Z"/>
</svg>