<svg xmlns="http://www.w3.org/2000/svg" width="56" height="56" viewBox="0 0 56 56" fill="none"><link xmlns="" type="text/css" rel="stylesheet" id="dark-mode-custom-link"/><link xmlns="" type="text/css" rel="stylesheet" id="dark-mode-general-link"/><style xmlns="" lang="en" type="text/css" id="dark-mode-custom-style"/><style xmlns="" lang="en" type="text/css" id="dark-mode-native-style"/><style xmlns="" lang="en" type="text/css" id="dark-mode-native-sheet"/>
<g clip-path="url(#clip0)">
<path d="M14.751 45.3491H27.4333V51.8985H14.751V45.3491Z" fill="url(#paint0_linear)"/>
<path d="M14.751 45.349V3.50527C14.751 1.56932 16.3203 0 18.2562 0H45.7273C47.6632 0 49.2326 1.56932 49.2326 3.50527V45.349C49.2326 47.2849 47.6633 48.8543 45.7273 48.8543H18.2562C16.3203 48.8543 14.751 47.285 14.751 45.349Z" fill="url(#paint1_linear)"/>
<path d="M21.1621 37.5964L24.9947 33.7638C27.578 31.1804 27.578 26.9919 24.9947 24.4085C24.2912 23.705 23.1506 23.705 22.4472 24.4085L15.1394 31.7164C15.007 31.8487 14.8781 31.9839 14.751 32.1202V45.3491C14.751 47.2849 16.3203 48.8544 18.2562 48.8544H26.4128C26.8429 47.8655 27.0848 46.7772 27.0918 45.6319C27.115 41.8417 24.6085 38.6347 21.1621 37.5964Z" fill="url(#paint2_linear)"/>
<path d="M45.7274 0H41.333C43.2689 0 44.8383 1.56932 44.8383 3.50527V45.349C44.8383 47.285 43.269 48.8543 41.333 48.8543H45.7274C47.6632 48.8543 49.2326 47.285 49.2326 45.349V3.50527C49.2326 1.56932 47.6632 0 45.7274 0V0Z" fill="url(#paint3_linear)"/>
<path d="M17.915 42.9208V5.93372C17.915 4.29402 19.2442 2.96484 20.8839 2.96484H43.0998C44.7395 2.96484 46.0687 4.29402 46.0687 5.93372V42.9207C46.0687 44.5604 44.7395 45.8896 43.0998 45.8896H20.884C19.2443 45.8897 17.915 44.5604 17.915 42.9208Z" fill="url(#paint4_linear)"/>
<path d="M21.1631 37.5964L24.9957 33.7638C27.5791 31.1804 27.5791 26.9919 24.9957 24.4085C24.2922 23.705 23.1517 23.705 22.4483 24.4085L17.916 28.9408V42.9207C17.916 44.5604 19.2452 45.8896 20.8849 45.8896H27.0848C27.0879 45.8038 27.0924 45.7183 27.093 45.6317C27.116 41.8417 24.6096 38.6347 21.1631 37.5964Z" fill="url(#paint5_linear)"/>
<path d="M35.4348 23.0517V17.5776C37.8721 17.765 38.5844 18.9648 39.8215 18.9648C41.4714 18.9648 42.1462 16.9026 42.1462 15.8903C42.1462 13.3032 37.7593 12.7034 35.4347 12.6284V11.691C35.4347 11.1661 34.7223 10.6787 34.01 10.6787C33.1852 10.6787 32.5853 11.1661 32.5853 11.691V12.7408C28.611 13.3031 25.0865 15.5904 25.0865 20.3521C25.0865 25.1513 29.1358 26.7636 32.5853 28.0758V34.1499C29.8108 33.6624 28.5359 31.4503 26.9611 31.4503C25.5363 31.4503 24.4116 33.325 24.4116 34.5997C24.4116 36.9994 28.086 39.3239 32.5853 39.4739V40.4112C32.5853 40.9362 33.1852 41.4236 34.01 41.4236C34.7224 41.4236 35.4347 40.9362 35.4347 40.4112V39.3238C39.8214 38.6114 42.821 35.7994 42.821 31.1502C42.821 26.0887 38.8467 24.3265 35.4348 23.0517ZM32.9601 22.1518C31.5354 21.5519 30.5604 20.877 30.5604 19.7897C30.5604 18.8898 31.2729 18.0276 32.9601 17.69V22.1518ZM35.0599 34.1124V29.0882C36.4097 29.7256 37.347 30.5129 37.347 31.7503C37.347 33.1 36.3346 33.8124 35.0599 34.1124Z" fill="url(#paint6_linear)"/>
<path d="M44.8384 3.52783V45.3269C45.5835 44.7875 46.0688 43.9111 46.0688 42.9209V5.93386C46.0687 4.94364 45.5835 4.0673 44.8384 3.52783Z" fill="url(#paint7_linear)"/>
<path d="M33.8103 21.4277V15.9536C36.2475 16.141 36.9598 17.3408 38.197 17.3408C39.8469 17.3408 40.5217 15.2786 40.5217 14.2663C40.5217 11.6792 36.1348 11.0794 33.8102 11.0044V10.067C33.8102 9.54211 33.0978 9.05469 32.3855 9.05469C31.5607 9.05469 30.9608 9.54211 30.9608 10.067V11.1168C26.9865 11.6791 23.462 13.9663 23.462 18.7281C23.462 23.5273 27.5113 25.1395 30.9608 26.4518V32.5258C28.1863 32.0384 26.9113 29.8263 25.3365 29.8263C23.9118 29.8263 22.7871 31.701 22.7871 32.9757C22.7871 35.3753 26.4615 37.6999 30.9608 37.8499V38.7872C30.9608 39.3122 31.5607 39.7996 32.3855 39.7996C33.0979 39.7996 33.8102 39.3122 33.8102 38.7872V37.6998C38.1969 36.9874 41.1965 34.1754 41.1965 29.5262C41.1965 24.4648 37.2222 22.7025 33.8103 21.4277ZM31.3356 20.5279C29.9109 19.928 28.9359 19.2531 28.9359 18.1658C28.9359 17.2659 29.6484 16.4036 31.3356 16.0661V20.5279ZM33.4353 32.4884V27.4643C34.7852 28.1017 35.7225 28.889 35.7225 30.1264C35.7225 31.4761 34.7101 32.1885 33.4353 32.4884Z" fill="url(#paint8_linear)"/>
<path d="M26.8064 30.3715C26.3082 30.0505 25.8375 29.8262 25.3365 29.8262C23.9118 29.8262 22.7871 31.7009 22.7871 32.9756C22.7871 33.6948 23.1192 34.4068 23.7025 35.0559L24.9948 33.7636C25.9578 32.8007 26.5614 31.6143 26.8064 30.3715Z" fill="url(#paint9_linear)"/>
<path d="M19.1432 35.5769L22.9757 31.7443C25.5591 29.1609 25.5591 24.9723 22.9757 22.389C22.2722 21.6854 21.1317 21.6854 20.4283 22.389L13.1204 29.6969C10.0961 32.7212 8.39697 36.8231 8.39697 41.1002V51.8983H16.6234C21.2265 51.8983 25.0448 48.2153 25.0729 43.6123C25.096 39.8221 22.5896 36.6151 19.1432 35.5769Z" fill="url(#paint10_linear)"/>
<path d="M19.1426 35.5769L22.9752 31.7443C25.5586 29.1609 25.5586 24.9723 22.9752 22.389C22.2717 21.6854 21.1312 21.6854 20.4278 22.389L19.4128 23.404C21.1251 25.9738 20.8481 29.477 18.5809 31.7443L16.5272 33.7979C15.7326 34.5926 15.8704 35.9226 16.8179 36.5269C19.1523 38.0156 20.6962 40.6339 20.678 43.6123C20.6499 48.2153 16.8316 51.8983 12.2285 51.8983H16.6229C21.226 51.8983 25.0443 48.2153 25.0724 43.6123C25.0955 39.8221 22.5891 36.6151 19.1426 35.5769Z" fill="url(#paint11_linear)"/>
<path d="M27.6882 56.0001H8.14215C7.38319 56.0001 6.76807 55.3848 6.76807 54.626V53.4729C6.76807 52.2913 7.726 51.3335 8.9076 51.3335H26.923C28.1046 51.3335 29.0625 52.2914 29.0625 53.4729V54.626C29.0623 55.3848 28.4471 56.0001 27.6882 56.0001Z" fill="url(#paint12_linear)"/>
</g>
<defs>
<linearGradient id="paint0_linear" x1="16.6176" y1="48.6238" x2="24.3606" y2="48.6238" gradientUnits="userSpaceOnUse">
<stop stop-color="#FFC2B5"/>
<stop offset="1" stop-color="#FF89A8"/>
</linearGradient>
<linearGradient id="paint1_linear" x1="14.554" y1="24.4271" x2="49.4746" y2="24.4271" gradientUnits="userSpaceOnUse">
<stop stop-color="#CDBFBA"/>
<stop offset="1" stop-color="#766E6E"/>
</linearGradient>
<linearGradient id="paint2_linear" x1="15.6655" y1="36.3677" x2="30.8113" y2="36.3677" gradientUnits="userSpaceOnUse">
<stop stop-color="#9E9797"/>
<stop offset="1" stop-color="#5B5555"/>
</linearGradient>
<linearGradient id="paint3_linear" x1="37.6995" y1="24.4271" x2="47.6208" y2="24.4271" gradientUnits="userSpaceOnUse">
<stop stop-color="#9E9797"/>
<stop offset="1" stop-color="#5B5555"/>
</linearGradient>
<linearGradient id="paint4_linear" x1="17.7542" y1="24.4272" x2="46.2664" y2="24.4272" gradientUnits="userSpaceOnUse">
<stop stop-color="#B0E7C9"/>
<stop offset="0.593" stop-color="#46CC8D"/>
<stop offset="1" stop-color="#0AB69F"/>
</linearGradient>
<linearGradient id="paint5_linear" x1="14.4953" y1="34.8853" x2="33.0729" y2="34.8853" gradientUnits="userSpaceOnUse">
<stop stop-color="#46CC8D"/>
<stop offset="0.5484" stop-color="#0AB69F"/>
<stop offset="1" stop-color="#01998D"/>
</linearGradient>
<linearGradient id="paint6_linear" x1="25.015" y1="26.0513" x2="46.7187" y2="26.0513" gradientUnits="userSpaceOnUse">
<stop stop-color="#46CC8D"/>
<stop offset="0.5484" stop-color="#0AB69F"/>
<stop offset="1" stop-color="#01998D"/>
</linearGradient>
<linearGradient id="paint7_linear" x1="37.0042" y1="24.4274" x2="46.0088" y2="24.4274" gradientUnits="userSpaceOnUse">
<stop stop-color="#46CC8D"/>
<stop offset="0.5484" stop-color="#0AB69F"/>
<stop offset="1" stop-color="#01998D"/>
</linearGradient>
<linearGradient id="paint8_linear" x1="23.3905" y1="24.4272" x2="45.0942" y2="24.4272" gradientUnits="userSpaceOnUse">
<stop stop-color="#FFF9DF"/>
<stop offset="0.593" stop-color="#FFE177"/>
<stop offset="1" stop-color="#FEB137"/>
</linearGradient>
<linearGradient id="paint9_linear" x1="22.9188" y1="32.441" x2="27.6573" y2="32.441" gradientUnits="userSpaceOnUse">
<stop stop-color="#FFE177"/>
<stop offset="1" stop-color="#FEB137"/>
</linearGradient>
<linearGradient id="paint10_linear" x1="8.273" y1="36.8798" x2="25.0472" y2="36.8798" gradientUnits="userSpaceOnUse">
<stop stop-color="#FFDCBD"/>
<stop offset="0.0028" stop-color="#FFDCBD"/>
<stop offset="1" stop-color="#FFA9B1"/>
</linearGradient>
<linearGradient id="paint11_linear" x1="14.1653" y1="36.8798" x2="32.3728" y2="36.8798" gradientUnits="userSpaceOnUse">
<stop stop-color="#FFC2B5"/>
<stop offset="1" stop-color="#FF89A8"/>
</linearGradient>
<linearGradient id="paint12_linear" x1="11.88" y1="53.6667" x2="27.1074" y2="53.6667" gradientUnits="userSpaceOnUse">
<stop stop-color="#01D0FB"/>
<stop offset="0.6075" stop-color="#26A6FE"/>
<stop offset="1" stop-color="#0182FC"/>
</linearGradient>
<clipPath id="clip0">
<rect width="56" height="56" fill="white"/>
</clipPath>
</defs>
</svg>