<svg xmlns="http://www.w3.org/2000/svg" width="56" height="56" viewBox="0 0 56 56" fill="none"><link xmlns="" type="text/css" rel="stylesheet" id="dark-mode-custom-link"/><link xmlns="" type="text/css" rel="stylesheet" id="dark-mode-general-link"/><style xmlns="" lang="en" type="text/css" id="dark-mode-custom-style"/><style xmlns="" lang="en" type="text/css" id="dark-mode-native-style"/><style xmlns="" lang="en" type="text/css" id="dark-mode-native-sheet"/>
<g clip-path="url(#clip0)">
<path d="M25.1332 55.9998C23.6236 55.9998 22.3998 54.7761 22.3998 53.2665V45.0034C22.3998 42.3195 21.129 39.7941 18.9734 38.1948H33.0665V48.0665C33.0665 52.448 29.5146 55.9998 25.1332 55.9998Z" fill="url(#paint0_linear)"/>
<path d="M54.6666 34.8979C54.6666 37.7157 52.3823 40 49.5645 40H23.4563C21.7849 40 20.1874 39.344 18.9735 38.1951C16.4562 35.8127 13.0725 34.3367 9.34424 34.2881L9.34556 34.2857V5.71431L9.34424 5.71189C13.0724 5.66347 16.4561 4.18748 18.9735 1.80507C20.1874 0.656078 21.7849 0 23.4563 0H49.5645C52.3823 0 54.6666 2.28425 54.6666 5.10204C54.6666 6.30977 54.2468 7.41901 53.5454 8.2925C52.7064 9.33729 52.7064 10.7988 53.5454 11.8435C54.2469 12.7169 54.6666 13.8263 54.6666 15.0339C54.6666 16.2416 54.2468 17.3509 53.5454 18.2244C52.7064 19.2692 52.7064 20.7307 53.5454 21.7753C54.2469 22.6488 54.6666 23.7581 54.6666 24.9658C54.6666 26.1735 54.2468 27.2828 53.5454 28.1563C52.7064 29.201 52.7064 30.6624 53.5454 31.7072C54.2468 32.5809 54.6666 33.6903 54.6666 34.8979Z" fill="url(#paint1_linear)"/>
<path d="M54.6665 34.8979C54.6665 37.7157 52.3822 40 49.5644 40H43.8276C46.6454 40 48.9297 37.7158 48.9297 34.898C48.9297 33.6903 48.5099 32.581 47.8085 31.7075C46.9695 30.6627 46.9695 29.2014 47.8085 28.1566C48.51 27.2831 48.9297 26.1739 48.9297 24.9661C48.9297 23.7584 48.5099 22.6491 47.8085 21.7757C46.9695 20.731 46.9695 19.2695 47.8085 18.2247C48.51 17.3512 48.9297 16.2419 48.9297 15.0342C48.9297 13.8265 48.5099 12.7173 47.8085 11.8438C46.9695 10.799 46.9695 9.33762 47.8085 8.29283C48.51 7.41934 48.9297 6.30999 48.9297 5.10237C48.9298 2.28425 46.6454 0 43.8276 0H49.5644C52.3822 0 54.6665 2.28425 54.6665 5.10204C54.6665 6.30977 54.2467 7.41901 53.5453 8.2925C52.7063 9.33729 52.7063 10.7987 53.5453 11.8435C54.2468 12.7169 54.6665 13.8262 54.6665 15.0339C54.6665 16.2416 54.2467 17.3509 53.5453 18.2244C52.7063 19.2691 52.7063 20.7305 53.5453 21.7753C54.2468 22.6488 54.6665 23.7581 54.6665 24.9658C54.6665 26.1735 54.2467 27.2828 53.5453 28.1563C52.7063 29.201 52.7063 30.6624 53.5453 31.7072C54.2467 32.5809 54.6665 33.6903 54.6665 34.8979Z" fill="url(#paint2_linear)"/>
<path d="M7.33276 2.17383V37.826H9.94006C12.182 37.826 13.9995 36.0085 13.9995 33.7665V6.23328C13.9995 3.9913 12.182 2.17383 9.94006 2.17383H7.33276Z" fill="url(#paint3_linear)"/>
<path d="M1.33325 2.60729V37.3927C1.33325 38.8327 2.50058 40 3.94054 40C6.18252 40 7.99999 38.1826 7.99999 35.9406V4.05945C7.99988 1.81747 6.18241 0 3.94054 0C2.50058 0 1.33325 1.16733 1.33325 2.60729Z" fill="url(#paint4_linear)"/>
</g>
<defs>
<linearGradient id="paint0_linear" x1="18.9734" y1="47.0974" x2="32.2154" y2="47.0974" gradientUnits="userSpaceOnUse">
<stop stop-color="#FFDCBD"/>
<stop offset="0.0028" stop-color="#FFDCBD"/>
<stop offset="1" stop-color="#FFA9B1"/>
</linearGradient>
<linearGradient id="paint1_linear" x1="12.5169" y1="20" x2="51.9499" y2="20" gradientUnits="userSpaceOnUse">
<stop stop-color="#FFDCBD"/>
<stop offset="0.0028" stop-color="#FFDCBD"/>
<stop offset="1" stop-color="#FFA9B1"/>
</linearGradient>
<linearGradient id="paint2_linear" x1="39.7921" y1="20" x2="55.424" y2="20" gradientUnits="userSpaceOnUse">
<stop stop-color="#FFC2B5"/>
<stop offset="1" stop-color="#FF89A8"/>
</linearGradient>
<linearGradient id="paint3_linear" x1="5.79211" y1="19.9999" x2="13.1273" y2="19.9999" gradientUnits="userSpaceOnUse">
<stop stop-color="#F2FBFF"/>
<stop offset="0.593" stop-color="#FAF7F7"/>
<stop offset="1" stop-color="#F3EAE6"/>
</linearGradient>
<linearGradient id="paint4_linear" x1="-0.341147" y1="20" x2="9.52912" y2="20" gradientUnits="userSpaceOnUse">
<stop stop-color="#FE99A0"/>
<stop offset="0.593" stop-color="#FE646F"/>
<stop offset="1" stop-color="#E41F2D"/>
</linearGradient>
<clipPath id="clip0">
<rect width="56" height="56" fill="white"/>
</clipPath>
</defs>
</svg>