<svg xmlns="http://www.w3.org/2000/svg" width="56" height="56" viewBox="0 0 56 56" fill="none"><link xmlns="" type="text/css" rel="stylesheet" id="dark-mode-custom-link"/><link xmlns="" type="text/css" rel="stylesheet" id="dark-mode-general-link"/><style xmlns="" lang="en" type="text/css" id="dark-mode-custom-style"/><style xmlns="" lang="en" type="text/css" id="dark-mode-native-style"/><style xmlns="" lang="en" type="text/css" id="dark-mode-native-sheet"/>
<g clip-path="url(#clip0)">
<path d="M12.7131 45.3396C11.0254 47.0273 8.87872 46.9889 7.4326 46.3905C5.98648 45.7909 4.44044 44.2998 4.44044 41.9127V40.4512C4.44044 39.6931 3.82598 39.0786 3.06789 39.0786C2.30981 39.0786 1.69534 39.6931 1.69534 40.4512V41.9127C1.69534 45.041 3.49174 47.729 6.38178 48.9258C9.25161 50.1139 12.3951 49.5016 14.6053 47.3286C15.1281 46.8146 15.2067 45.9813 14.7315 45.4231C14.2053 44.8051 13.2766 44.7773 12.7131 45.3396Z" fill="url(#paint0_linear)"/>
<path d="M3.06987 30.9651C3.824 30.964 4.44044 30.3055 4.44044 29.5514V11.7517C4.44044 11.6584 4.44198 11.5654 4.44494 11.4726C4.46987 10.6923 3.85518 10.042 3.07437 10.042C2.33649 10.042 1.72784 10.6253 1.70237 11.3627C1.69776 11.497 1.69534 11.6317 1.69534 11.767V29.5926C1.69534 29.9714 1.84907 30.3151 2.09723 30.5632C2.34582 30.8118 2.69028 30.9657 3.06987 30.9651Z" fill="url(#paint1_linear)"/>
<path d="M1.69534 24.2514L4.44044 25.898V21.8507L1.69534 20.2041V24.2514Z" fill="url(#paint2_linear)"/>
<path d="M16.2827 0.657841C15.2402 0.358186 14.1483 0.207315 13.0326 0.21566C10.2447 0.235754 7.70291 1.26868 5.73599 2.95977C4.76851 3.79153 5.36563 5.38073 6.64155 5.38073C6.96679 5.38073 7.28368 5.2684 7.53008 5.05615C9.05197 3.74498 11.02 2.94945 13.162 2.96065C13.9789 2.96493 14.778 3.08121 15.5418 3.30247C16.4125 3.55458 17.2786 2.88532 17.2786 1.979C17.2787 1.36586 16.872 0.827158 16.2827 0.657841Z" fill="url(#paint3_linear)"/>
<path d="M50.2408 32.6076L22.9131 5.27996C22.1576 4.52451 20.8668 4.88357 20.61 5.92056C20.4942 6.38755 20.6316 6.88112 20.9718 7.22129L48.4048 34.6545C50.4395 36.6892 51.5595 39.3936 51.5595 42.2705C51.5595 48.2087 46.7281 53.0401 40.7899 53.0401C36.7129 53.0401 33.3968 49.7229 33.3968 45.647C33.3968 44.8533 32.7231 44.2161 31.9164 44.2786C31.1938 44.3346 30.6484 44.9698 30.6517 45.6945C30.6772 51.2626 35.2161 55.7852 40.7899 55.7852C48.2731 55.7852 54.3573 49.6691 54.3046 42.1739C54.2794 38.5788 52.7827 35.1496 50.2408 32.6076Z" fill="url(#paint4_linear)"/>
<path d="M53.0133 36.5461C52.3302 35.0958 51.3935 33.7603 50.2408 32.6076L49.3465 31.7134L48.6472 34.9055C50.5279 36.909 51.5595 39.5101 51.5595 42.2704C51.5595 42.6896 51.5346 43.103 51.4877 43.5098L53.0133 36.5461Z" fill="url(#paint5_linear)"/>
<path d="M16.6263 28.8462L15.6537 29.3178V43.101C15.6537 44.5486 17.3836 45.1194 18.2842 44.2121L28.131 35.8116L16.6263 28.8462Z" fill="url(#paint6_linear)"/>
<path d="M28.1306 35.8118L27.4696 36.3762L25.2637 38.257L15.6536 32.5165V29.3179L16.6265 28.8457L28.1306 35.8118Z" fill="url(#paint7_linear)"/>
<path d="M1.37144 17.4761L53.2406 9.26465C54.9107 9.00024 56.318 10.5097 55.9373 12.1572L48.4365 44.6176C48.014 46.4463 45.9335 47.3344 44.3205 46.3746L0.794856 20.4763C-0.511372 19.6991 -0.129913 17.7138 1.37144 17.4761Z" fill="url(#paint8_linear)"/>
<path d="M53.2405 9.26465L50.6271 9.67839C51.2922 10.2395 51.728 11.3569 51.543 12.1572L44.0421 44.6176C43.9324 45.0925 43.7102 45.5031 43.414 45.8353L44.3205 46.3746C45.9335 47.3344 48.0139 46.4462 48.4365 44.6176L55.9373 12.1572C56.3179 10.5097 54.9108 9.00024 53.2405 9.26465Z" fill="url(#paint9_linear)"/>
<path d="M48.4364 44.6179L55.9372 12.1575C56.1221 11.3572 55.8844 10.5901 55.4002 10.0425L15.6537 29.3178L44.3205 46.375C45.9334 47.3346 48.0138 46.4465 48.4364 44.6179Z" fill="url(#paint10_linear)"/>
<path d="M55.4002 10.042L51.5796 11.8948C51.5735 11.9849 51.5624 12.073 51.5429 12.157L44.0421 44.6174C43.9324 45.0923 43.7102 45.5029 43.414 45.8351L44.3204 46.3744C45.9334 47.334 48.0137 46.4459 48.4364 44.6173L55.9372 12.1569C56.1222 11.3568 55.8844 10.5897 55.4002 10.042Z" fill="url(#paint11_linear)"/>
</g>
<defs>
<linearGradient id="paint0_linear" x1="-0.751419" y1="44.3008" x2="60.6049" y2="44.3008" gradientUnits="userSpaceOnUse">
<stop stop-color="#537983"/>
<stop offset="1" stop-color="#3E5959"/>
</linearGradient>
<linearGradient id="paint1_linear" x1="-0.751416" y1="20.5037" x2="60.6048" y2="20.5037" gradientUnits="userSpaceOnUse">
<stop stop-color="#537983"/>
<stop offset="1" stop-color="#3E5959"/>
</linearGradient>
<linearGradient id="paint2_linear" x1="-2.78169" y1="23.051" x2="5.60634" y2="23.051" gradientUnits="userSpaceOnUse">
<stop stop-color="#537983"/>
<stop offset="1" stop-color="#384949"/>
</linearGradient>
<linearGradient id="paint3_linear" x1="-0.751445" y1="2.79803" x2="60.6048" y2="2.79803" gradientUnits="userSpaceOnUse">
<stop stop-color="#537983"/>
<stop offset="1" stop-color="#3E5959"/>
</linearGradient>
<linearGradient id="paint4_linear" x1="-0.751413" y1="30.3311" x2="60.6048" y2="30.3311" gradientUnits="userSpaceOnUse">
<stop stop-color="#537983"/>
<stop offset="1" stop-color="#3E5959"/>
</linearGradient>
<linearGradient id="paint5_linear" x1="43.5921" y1="37.6117" x2="51.0352" y2="37.6117" gradientUnits="userSpaceOnUse">
<stop stop-color="#537983"/>
<stop offset="1" stop-color="#384949"/>
</linearGradient>
<linearGradient id="paint6_linear" x1="12.2597" y1="36.7477" x2="30.6307" y2="36.7477" gradientUnits="userSpaceOnUse">
<stop stop-color="#6BD9E7"/>
<stop offset="0.5725" stop-color="#26A6FE"/>
<stop offset="1" stop-color="#0172FB"/>
</linearGradient>
<linearGradient id="paint7_linear" x1="6.47841" y1="33.5514" x2="27.5935" y2="33.5514" gradientUnits="userSpaceOnUse">
<stop stop-color="#6BD9E7"/>
<stop offset="0.5725" stop-color="#26A6FE"/>
<stop offset="1" stop-color="#0172FB"/>
</linearGradient>
<linearGradient id="paint8_linear" x1="-3.84315" y1="28.0004" x2="73.6823" y2="28.0004" gradientUnits="userSpaceOnUse">
<stop stop-color="#6BD9E7"/>
<stop offset="0.5725" stop-color="#26A6FE"/>
<stop offset="1" stop-color="#0172FB"/>
</linearGradient>
<linearGradient id="paint9_linear" x1="25.6392" y1="28.0004" x2="57.8944" y2="28.0004" gradientUnits="userSpaceOnUse">
<stop stop-color="#6BD9E7"/>
<stop offset="0.5725" stop-color="#26A6FE"/>
<stop offset="1" stop-color="#0172FB"/>
</linearGradient>
<linearGradient id="paint10_linear" x1="14.0714" y1="28.4044" x2="58.4338" y2="28.4044" gradientUnits="userSpaceOnUse">
<stop stop-color="#6BD9E7"/>
<stop offset="0.5725" stop-color="#26A6FE"/>
<stop offset="1" stop-color="#0172FB"/>
</linearGradient>
<linearGradient id="paint11_linear" x1="17.4588" y1="28.4041" x2="52.2807" y2="28.4041" gradientUnits="userSpaceOnUse">
<stop stop-color="#6BD9E7"/>
<stop offset="0.5725" stop-color="#26A6FE"/>
<stop offset="1" stop-color="#0172FB"/>
</linearGradient>
<clipPath id="clip0">
<rect width="56" height="56" fill="white"/>
</clipPath>
</defs>
</svg>