<svg xmlns="http://www.w3.org/2000/svg" width="56" height="56" viewBox="0 0 56 56" fill="none"><link xmlns="" type="text/css" rel="stylesheet" id="dark-mode-custom-link"/><link xmlns="" type="text/css" rel="stylesheet" id="dark-mode-general-link"/><style xmlns="" lang="en" type="text/css" id="dark-mode-custom-style"/><style xmlns="" lang="en" type="text/css" id="dark-mode-native-style"/><style xmlns="" lang="en" type="text/css" id="dark-mode-native-sheet"/>
<g clip-path="url(#clip0)">
<path d="M18.988 52.2568C22.4545 48.7903 22.073 42.7996 18.1155 38.9385C14.2147 35.1328 8.25177 34.8801 4.88936 38.3728C3.12579 40.2047 2.40559 42.7079 2.68867 45.2254C2.68691 45.2096 2.68416 45.1938 2.68252 45.178C2.68943 47.3866 3.59762 47.826 2.00404 49.4196C1.53122 49.8924 1.01163 50.2934 0.4569 50.6234C0.0916923 50.8406 0.0652296 51.369 0.399253 51.7062C0.429998 51.7372 0.460963 51.7682 0.492038 51.7991C5.76383 57.0339 13.833 57.4103 18.5067 52.7376C18.8197 52.4247 18.6584 52.5865 18.988 52.2568Z" fill="url(#paint0_linear)"/>
<path d="M18.988 52.2568C22.4545 48.7903 22.073 42.7996 18.1155 38.9385C14.2147 35.1328 8.25177 34.8801 4.88936 38.3728C3.12579 40.2047 2.40559 42.7079 2.68867 45.2254C2.68691 45.2096 2.68416 45.1938 2.68252 45.178C2.68943 47.3866 3.59762 47.826 2.00404 49.4196C1.53122 49.8924 1.01163 50.2934 0.4569 50.6234C0.0916923 50.8406 0.0652296 51.369 0.399253 51.7062C0.429998 51.7372 0.460963 51.7682 0.492038 51.7991C5.76383 57.0339 13.833 57.4103 18.5067 52.7376C18.8197 52.4247 18.6584 52.5865 18.988 52.2568Z" fill="url(#paint1_linear)"/>
<path d="M15.7252 48.9941C19.1917 45.5276 20.2962 41.0229 18.1618 38.9849C16.0582 36.9763 11.5446 38.173 8.15188 41.6353C6.37239 43.4513 5.23636 45.5388 4.86643 47.4032C4.86874 47.3915 4.87039 47.3801 4.8728 47.3683C4.36309 49.0603 4.95702 49.1855 3.36344 50.779C2.89062 51.2519 2.3987 51.6805 1.89635 52.0629C1.74054 52.1816 1.62623 52.3356 1.56748 52.4843C1.50171 52.6511 2.98494 53.936 3.82747 54.1461C6.98005 54.9321 11.5561 53.1626 15.244 49.475C15.5569 49.162 15.3955 49.3237 15.7252 48.9941Z" fill="url(#paint2_linear)"/>
<path d="M18.9879 52.2567C18.6579 52.5866 18.8196 52.4249 18.5066 52.738C13.8332 57.4101 5.76394 57.0336 0.492588 51.7992C0.460854 51.7686 0.430219 51.738 0.399584 51.7062C0.26738 51.5729 0.192054 51.4094 0.171631 51.2475C3.71237 53.4425 9.42558 52.077 13.6356 47.8669C13.9486 47.5539 13.7875 47.7162 14.1175 47.3863C17.2071 44.2968 19.2358 41.2753 16.8973 37.9111C17.3209 38.2183 17.7282 38.5613 18.1156 38.9389C22.0736 42.7999 22.4543 48.7904 18.9879 52.2567Z" fill="url(#paint3_linear)"/>
<path d="M18.1154 38.9384C17.7284 38.5607 17.3207 38.2186 16.8975 37.9111C19.6598 41.7058 19.6033 46.7429 16.5387 49.8074C16.209 50.137 16.3703 49.9753 16.0574 50.2881C11.9755 54.3692 5.30385 54.5985 0.167556 51.1039C0.152074 51.3097 0.227838 51.533 0.399242 51.706C0.429987 51.7371 0.460952 51.7681 0.492027 51.7989C5.76382 57.0337 13.833 57.4101 18.5067 52.7374C18.8196 52.4246 18.6583 52.5863 18.9879 52.2567C22.4546 48.7902 22.073 42.7995 18.1154 38.9384Z" fill="url(#paint4_linear)"/>
<path d="M54.1074 1.72761C51.9577 -0.422129 48.5262 -0.585737 46.1818 1.34978L22.716 20.7219C20.4014 22.6329 18.4958 24.991 17.1136 27.6554L13.3577 34.8952L20.9398 42.4774L28.1797 38.7214C30.844 37.3392 33.2022 35.4337 35.1131 33.119L54.4853 9.65326C56.4207 7.30884 56.2571 3.87735 54.1074 1.72761Z" fill="url(#paint5_linear)"/>
<path d="M54.1074 1.72751C52.419 0.0390565 49.9399 -0.423438 47.8178 0.393394C48.5671 0.681519 49.2681 1.12677 49.8688 1.72762C52.0185 3.87736 52.1821 7.30885 50.2466 9.65327L30.8746 33.1189C28.9637 35.4336 26.6055 37.3391 23.9411 38.7213L19.492 41.0295L20.9398 42.4774L28.1797 38.7214C30.8441 37.3392 33.2022 35.4337 35.1131 33.119L54.4853 9.65316C56.4207 7.30874 56.2571 3.87725 54.1074 1.72751Z" fill="url(#paint6_linear)"/>
<path d="M14.6033 30.1016L12.9892 33.5059C12.5549 34.4219 12.7435 35.5119 13.4602 36.2287L19.6064 42.3748C20.3232 43.0916 21.4132 43.2803 22.3292 42.8459L25.7334 41.2318C26.577 40.8319 26.7699 39.717 26.1097 39.0569L16.7781 29.7252C16.118 29.0653 15.0033 29.2581 14.6033 30.1016Z" fill="url(#paint7_linear)"/>
<path d="M26.1098 39.057L16.7782 29.7253C16.118 29.0652 15.0033 29.2581 14.6033 30.1016L14.0605 31.2463L21.8712 39.057C22.5313 39.7172 22.3384 40.8319 21.4949 41.2319L19.4385 42.207L19.6064 42.3749C20.3232 43.0917 21.4132 43.2803 22.3292 42.8459L25.7334 41.2318C26.5771 40.8319 26.77 39.7172 26.1098 39.057Z" fill="url(#paint8_linear)"/>
<path d="M18.7797 13.8492C22.1584 13.8492 24.8974 11.1102 24.8974 7.7315C24.8974 4.35277 22.1584 1.61377 18.7797 1.61377C15.4009 1.61377 12.6619 4.35277 12.6619 7.7315C12.6619 11.1102 15.4009 13.8492 18.7797 13.8492Z" fill="url(#paint9_linear)"/>
<path d="M8.21551 26.9497C10.7243 26.9497 12.758 24.916 12.758 22.4072C12.758 19.8985 10.7243 17.8647 8.21551 17.8647C5.70677 17.8647 3.67303 19.8985 3.67303 22.4072C3.67303 24.916 5.70677 26.9497 8.21551 26.9497Z" fill="url(#paint10_linear)"/>
<path d="M44.8042 32.8819C40.1857 32.8931 36.3347 36.1674 35.4329 40.5211C35.2754 41.2822 34.7194 41.9019 33.9847 42.1554C31.5816 42.9844 29.8564 45.2679 29.8634 47.9543C29.8719 51.2769 32.59 54.0191 35.9124 54.0556C37.6038 54.0741 39.1387 53.4059 40.2565 52.3127C40.8095 51.7719 41.6098 51.5528 42.3572 51.7514C43.1455 51.961 43.9737 52.0726 44.828 52.0726C50.1274 52.0726 54.4233 47.7767 54.4234 42.4773C54.4235 37.1736 50.108 32.8689 44.8042 32.8819Z" fill="url(#paint11_linear)"/>
<path d="M40.461 52.0726C39.6067 52.0726 38.7785 51.9609 37.9902 51.7514C37.2428 51.5528 36.4425 51.7718 35.8896 52.3126C35.2983 52.8908 34.5895 53.3485 33.8035 53.6502C34.461 53.9039 35.1714 54.0474 35.9124 54.0555C37.6038 54.0741 39.1388 53.4058 40.2566 52.3126C40.3483 52.223 40.4472 52.1431 40.5512 52.0715C40.5211 52.0717 40.4912 52.0726 40.461 52.0726Z" fill="url(#paint12_linear)"/>
<path d="M44.8042 32.8819C44.0614 32.8836 43.3389 32.9709 42.6448 33.1325C46.8883 34.1225 50.0566 37.933 50.0565 42.4775C50.0564 47.0257 46.8919 50.8346 42.6446 51.823C43.346 51.9863 44.0769 52.0728 44.828 52.0728C50.1274 52.0728 54.4234 47.7769 54.4235 42.4775C54.4236 37.1734 50.1081 32.8689 44.8042 32.8819Z" fill="url(#paint13_linear)"/>
</g>
<defs>
<linearGradient id="paint0_linear" x1="3.57469" y1="39.6367" x2="17.565" y2="53.627" gradientUnits="userSpaceOnUse">
<stop stop-color="#FEE903"/>
<stop offset="0.2305" stop-color="#FEE505"/>
<stop offset="0.4171" stop-color="#FEDB0B"/>
<stop offset="0.5884" stop-color="#FECA15"/>
<stop offset="0.7504" stop-color="#FEB223"/>
<stop offset="0.9046" stop-color="#FE9435"/>
<stop offset="1" stop-color="#FE7D43"/>
</linearGradient>
<linearGradient id="paint1_linear" x1="3.57469" y1="39.6367" x2="17.565" y2="53.627" gradientUnits="userSpaceOnUse">
<stop stop-color="#FFE177"/>
<stop offset="0.5725" stop-color="#FEB137"/>
<stop offset="1" stop-color="#FE646F"/>
</linearGradient>
<linearGradient id="paint2_linear" x1="2.18471" y1="38.0987" x2="16.3173" y2="52.2314" gradientUnits="userSpaceOnUse">
<stop stop-color="#FFE177"/>
<stop offset="0.5725" stop-color="#FEB137"/>
<stop offset="1" stop-color="#FE646F"/>
</linearGradient>
<linearGradient id="paint3_linear" x1="-4.01431" y1="32.0481" x2="16.9959" y2="53.0583" gradientUnits="userSpaceOnUse">
<stop stop-color="#FFE177"/>
<stop offset="0.5725" stop-color="#FEB137"/>
<stop offset="1" stop-color="#FE646F"/>
</linearGradient>
<linearGradient id="paint4_linear" x1="-1.32177" y1="34.7401" x2="14.8218" y2="50.8837" gradientUnits="userSpaceOnUse">
<stop stop-color="#FFE177"/>
<stop offset="0.5725" stop-color="#FEB137"/>
<stop offset="1" stop-color="#FE646F"/>
</linearGradient>
<linearGradient id="paint5_linear" x1="13.5867" y1="21.2388" x2="53.4691" y2="21.2388" gradientUnits="userSpaceOnUse">
<stop stop-color="#537983"/>
<stop offset="1" stop-color="#3E5959"/>
</linearGradient>
<linearGradient id="paint6_linear" x1="3.57853" y1="21.2389" x2="49.2754" y2="21.2389" gradientUnits="userSpaceOnUse">
<stop stop-color="#537983"/>
<stop offset="1" stop-color="#384949"/>
</linearGradient>
<linearGradient id="paint7_linear" x1="12.7924" y1="36.2034" x2="28.004" y2="36.2034" gradientUnits="userSpaceOnUse">
<stop stop-color="#F9F3F1"/>
<stop offset="0.5725" stop-color="#EFE2DD"/>
<stop offset="1" stop-color="#CDBFBA"/>
</linearGradient>
<linearGradient id="paint8_linear" x1="4.29149" y1="36.2034" x2="24.5685" y2="36.2034" gradientUnits="userSpaceOnUse">
<stop stop-color="#F9F3F1"/>
<stop offset="0.5725" stop-color="#EFE2DD"/>
<stop offset="1" stop-color="#CDBFBA"/>
</linearGradient>
<linearGradient id="paint9_linear" x1="13.6158" y1="7.7315" x2="28.546" y2="7.7315" gradientUnits="userSpaceOnUse">
<stop stop-color="#7ACAA6"/>
<stop offset="0.5725" stop-color="#09A76D"/>
<stop offset="1" stop-color="#026841"/>
</linearGradient>
<linearGradient id="paint10_linear" x1="4.12279" y1="22.4072" x2="18.5204" y2="22.4072" gradientUnits="userSpaceOnUse">
<stop stop-color="#6BD9E7"/>
<stop offset="0.5725" stop-color="#26A6FE"/>
<stop offset="1" stop-color="#0172FB"/>
</linearGradient>
<linearGradient id="paint11_linear" x1="27.6917" y1="43.4689" x2="57.9372" y2="43.4689" gradientUnits="userSpaceOnUse">
<stop stop-color="#FDB4BA"/>
<stop offset="0.5725" stop-color="#BD80E1"/>
<stop offset="1" stop-color="#9857BD"/>
</linearGradient>
<linearGradient id="paint12_linear" x1="18.6898" y1="52.8674" x2="53.7055" y2="52.8674" gradientUnits="userSpaceOnUse">
<stop stop-color="#FDB4BA"/>
<stop offset="0.5725" stop-color="#BD80E1"/>
<stop offset="1" stop-color="#9857BD"/>
</linearGradient>
<linearGradient id="paint13_linear" x1="18.6898" y1="42.4773" x2="53.7055" y2="42.4773" gradientUnits="userSpaceOnUse">
<stop stop-color="#FDB4BA"/>
<stop offset="0.5725" stop-color="#BD80E1"/>
<stop offset="1" stop-color="#9857BD"/>
</linearGradient>
<clipPath id="clip0">
<rect width="56" height="56" fill="white"/>
</clipPath>
</defs>
</svg>